<svg id="Ebene_1" data-name="Ebene 1" xmlns="http://www.w3.org/2000/svg" xmlns:xlink="http://www.w3.org/1999/xlink" viewBox="0 0 653 458"><defs><style>.cls-1{fill:#b21616;opacity:0.7;}.cls-2{opacity:0.9;}.cls-3{fill:#fff;stroke:#6a6a6a;stroke-miterlimit:10;}</style></defs><rect class="cls-1" x="-140.79" y="-215.26" width="801.8" height="465.71" transform="translate(4.43 68.51) rotate(-15.13)"/><g class="cls-2"><path class="cls-3" d="M168.57,82.09c-22.82,0-40.7-9.83-40.7-22.38V212.3c0,11.6,17.5,20.35,40.7,20.35s40.69-8.75,40.69-20.35V59.71C209.26,72.26,191.38,82.09,168.57,82.09Z"/><path class="cls-3" d="M168.57,37.33c-23.2,0-40.7,8.75-40.7,20.35S145.37,78,168.57,78s40.69-8.74,40.69-20.34S191.76,37.33,168.57,37.33ZM152.29,61.75h-4.07a4.07,4.07,0,1,1,0-8.14h4.07a4.07,4.07,0,1,1,0,8.14Zm36.62,0h-4.07a4.07,4.07,0,1,1,0-8.14h4.07a4.07,4.07,0,0,1,0,8.14Z"/><path class="cls-3" d="M266.22,204.17c-22.81,0-40.69-9.84-40.69-22.39V212.3c0,11.6,17.5,20.35,40.69,20.35s40.7-8.75,40.7-20.35V181.79C306.92,194.33,289,204.17,266.22,204.17Z"/><path class="cls-3" d="M266.22,200.1c23.2,0,40.7-8.75,40.7-20.35s-17.5-20.35-40.7-20.35-40.69,8.75-40.69,20.35S243,200.1,266.22,200.1Zm16.28-24.42h4.07a4.07,4.07,0,1,1,0,8.14H282.5a4.07,4.07,0,0,1,0-8.14Zm-36.62,0H250a4.07,4.07,0,1,1,0,8.14h-4.07a4.07,4.07,0,0,1,0-8.14Z"/></g><image width="1920" height="1080" transform="translate(340.65 241.33) scale(0.2)" xlink:href="../../../../Downloads/go%20(1).png"/></svg>